<?xml version="1.0" encoding="UTF-8"?><svg xmlns="http://www.w3.org/2000/svg" xmlns:xlink="http://www.w3.org/1999/xlink" viewBox="0 0 392.21 529.14"><defs><style>.am{fill:url(#u);}.an{fill:url(#t);}.ao{fill:url(#v);}.ap{fill:url(#g);}.aq{fill:url(#f);}.ar{fill:url(#p);}.as{fill:url(#o);}.at{fill:url(#s);}.au{fill:url(#q);}.av{fill:url(#r);}.aw{fill:url(#i);}.ax{fill:url(#h);}.ay{fill:url(#k);}.b`{fill:url(#j);}.ba{fill:url(#m);}.bb{fill:url(#l);}.bc{fill:url(#n);}.bd{fill:url(#x);}.be{fill:url(#w);}.bf{fill:url(#y);}.bg{fill:url(#ag);}.bh{fill:url(#ab);}.bi{fill:url(#ah);}.bj{fill:url(#ai);}.bk{fill:url(#ad);}.bl{fill:url(#aj);}.bm{fill:url(#ae);}.bn{fill:url(#af);}.bo{fill:url(#a`);}.bp{fill:url(#al);}.bq{fill:url(#ac);}.br{fill:url(#ak);}.bs{fill:#fff;}.bt{fill:#a6c7a8;}.bu{fill:#779273;}.bv{isolation:isolate;}.bw{fill:none;stroke:url(#aa);stroke-miterlimit:10;stroke-width:2.7px;}.bx{fill:url(#e);}.bx,.by{mix-blend-mode:color-burn;opacity:.51;}.by{fill:url(#d);}</style><radialGradient id="d" cx="2436.66" cy="-106.75" fx="2436.66" fy="-106.75" r="63.36" gradientTransform="translate(251.12 -391.01) rotate(90) scale(.32)" gradientUnits="userSpaceOnUse"><stop offset="0" stop-color="#615850"/><stop offset=".21" stop-color="#716962" stop-opacity=".91"/><stop offset=".51" stop-color="#9e9893" stop-opacity=".65"/><stop offset=".88" stop-color="#e7e6e5" stop-opacity=".23"/><stop offset=".98" stop-color="#fff" stop-opacity=".1"/></radialGradient><radialGradient id="e" cx="1851.02" cy="-382.83" fx="1851.02" fy="-382.83" r="63.35" gradientTransform="translate(80.23 -533.82) rotate(90) scale(.46 .35)" xlink:href="#d"/><linearGradient id="f" x1="202.21" y1="186.59" x2="236.66" y2="186.59" gradientTransform="translate(117.91 212.02) rotate(48.44)" gradientUnits="userSpaceOnUse"><stop offset="0" stop-color="#834016"/><stop offset=".5" stop-color="#eebd62"/><stop offset=".53" stop-color="#e6b45c"/><stop offset=".68" stop-color="#bb823e"/><stop offset=".82" stop-color="#9c5e28"/><stop offset=".93" stop-color="#89481a"/><stop offset="1" stop-color="#834016"/></linearGradient><linearGradient id="g" x1="283.84" y1="93.31" x2="283.84" y2="222.22" gradientTransform="translate(187.67 -220.8) rotate(46.16)" gradientUnits="userSpaceOnUse"><stop offset="0" stop-color="#cea69f"/><stop offset=".12" stop-color="#d5b3aa"/></linearGradient><linearGradient id="h" x1="261.4" y1="74.05" x2="306.28" y2="74.05" gradientTransform="translate(404.91 -248.62) rotate(90)" gradientUnits="userSpaceOnUse"><stop offset=".12" stop-color="#d5b3aa"/><stop offset=".48" stop-color="#f7ebeb"/><stop offset=".57" stop-color="#f2e3e2"/><stop offset=".71" stop-color="#e5cec9"/><stop offset=".86" stop-color="#d5b3aa"/></linearGradient><linearGradient id="i" x1="76.06" y1="213.67" x2="139.15" y2="213.67" gradientTransform="translate(-6.17 -194)" gradientUnits="userSpaceOnUse"><stop offset="0" stop-color="#89ad8a"/><stop offset=".5" stop-color="#bad1ba"/><stop offset=".65" stop-color="#a7c3a7"/><stop offset=".86" stop-color="#91b291"/><stop offset="1" stop-color="#89ad8a"/></linearGradient><linearGradient id="j" x1="-17.73" y1="697.4" x2="13.82" y2="697.4" gradientTransform="translate(194.43 -190.18)" xlink:href="#i"/><linearGradient id="k" x1="105.51" y1="271.02" x2="105.51" y2="616.98" gradientTransform="translate(158.42 15.02) rotate(29.17)" xlink:href="#g"/><linearGradient id="l" x1="45.28" y1="219.34" x2="165.73" y2="219.34" gradientTransform="translate(362.99 152.46) rotate(90)" xlink:href="#h"/><linearGradient id="m" x1="45.29" y1="395.11" x2="115.32" y2="395.11" gradientTransform="translate(158.42 15.02) rotate(29.17)" xlink:href="#h"/><linearGradient id="n" x1="91.18" y1="371.4" x2="165.73" y2="371.4" gradientTransform="translate(158.42 15.02) rotate(29.17)" xlink:href="#h"/><linearGradient id="o" x1="90.32" y1="377.61" x2="157.15" y2="377.61" gradientTransform="translate(158.42 15.02) rotate(29.17)" gradientUnits="userSpaceOnUse"><stop offset="0" stop-color="#8e4b19"/><stop offset=".08" stop-color="#dd9740"/><stop offset=".17" stop-color="#faebcb"/><stop offset=".18" stop-color="#f3d394"/><stop offset=".2" stop-color="#eaad3d"/><stop offset=".2" stop-color="#e8aa3c"/><stop offset=".28" stop-color="#9a4721"/><stop offset=".38" stop-color="#dd9740"/><stop offset=".46" stop-color="#ebd6a9"/><stop offset=".5" stop-color="#eebd62"/><stop offset=".5" stop-color="#eab55a"/><stop offset=".51" stop-color="#e09f47"/><stop offset=".52" stop-color="#dd9740"/><stop offset=".56" stop-color="#834016"/><stop offset=".63" stop-color="#97541d"/><stop offset=".69" stop-color="#c37934"/><stop offset=".75" stop-color="#e7b36e"/><stop offset=".81" stop-color="#b46c2a"/><stop offset=".83" stop-color="#9e5920"/><stop offset=".85" stop-color="#904d1b"/><stop offset=".87" stop-color="#8c4919"/><stop offset=".96" stop-color="#a75b29"/></linearGradient><linearGradient id="p" x1="220.29" y1="76.39" x2="252.49" y2="76.39" gradientTransform="translate(-35.12 395.13) rotate(-7.87)" xlink:href="#h"/><linearGradient id="q" x1="260.12" y1="374.45" x2="210.23" y2="374.45" gradientTransform="translate(-133.12 261.03) rotate(-44)" gradientUnits="userSpaceOnUse"><stop offset=".37" stop-color="#6d3212"/><stop offset=".5" stop-color="#b2773b"/><stop offset=".51" stop-color="#af7439"/><stop offset=".58" stop-color="#8b5023"/><stop offset=".63" stop-color="#753a16"/><stop offset=".67" stop-color="#6d3212"/></linearGradient><linearGradient id="r" x1="437.59" y1="336.92" x2="30.51" y2="336.92" xlink:href="#q"/><linearGradient id="s" x1="204.65" y1="408.82" x2="262.77" y2="408.82" gradientTransform="translate(-133.12 261.03) rotate(-44)" xlink:href="#f"/><linearGradient id="t" x1="183.38" y1="458.48" x2="284.04" y2="458.48" gradientTransform="translate(-133.12 261.03) rotate(-44)" xlink:href="#f"/><linearGradient id="u" x1="183.38" y1="303.47" x2="284.04" y2="303.47" gradientTransform="translate(12.09 13.51)" xlink:href="#f"/><linearGradient id="v" x1="219.81" y1="351.01" x2="260.39" y2="351.01" gradientTransform="translate(-133.12 261.03) rotate(-44)" xlink:href="#h"/><linearGradient id="w" x1="203.98" y1="423.08" x2="263.44" y2="423.08" gradientTransform="translate(-133.12 261.03) rotate(-44)" xlink:href="#h"/><linearGradient id="x" x1="167.93" y1="438.57" x2="238.87" y2="438.57" gradientTransform="matrix(1, 0, 0, 1, 0, 0)" xlink:href="#f"/><linearGradient id="y" x1="138.31" y1="384.88" x2="138.31" y2="496.87" gradientTransform="translate(-225.36 -167.62) rotate(-23.34)" xlink:href="#q"/><linearGradient id="a`" x1="118.81" y1="368.15" x2="157.81" y2="368.15" gradientTransform="translate(-90.83 -252.54)" xlink:href="#f"/><linearGradient id="aa" x1="110.28" y1="133.93" x2="186.96" y2="133.93" gradientTransform="matrix(1, 0, 0, 1, 0, 0)" gradientUnits="userSpaceOnUse"><stop offset=".01" stop-color="#7d3d16"/><stop offset=".04" stop-color="#642806"/><stop offset=".12" stop-color="#b46c2a"/><stop offset=".24" stop-color="#a75b29"/><stop offset=".47" stop-color="#eaad3d"/><stop offset=".51" stop-color="#eaaf43"/><stop offset=".55" stop-color="#ecb654"/><stop offset=".6" stop-color="#eec171"/><stop offset=".66" stop-color="#f2d199"/><stop offset=".68" stop-color="#f4d9ad"/><stop offset=".75" stop-color="#eabc7e"/><stop offset=".84" stop-color="#dd9740"/><stop offset=".97" stop-color="#9a4721"/><stop offset="1" stop-color="#803916"/></linearGradient><linearGradient id="ab" x1="298.27" y1="140.82" x2="357.94" y2="140.82" gradientTransform="translate(-133.51 136.09) rotate(-22.47)" gradientUnits="userSpaceOnUse"><stop offset="0" stop-color="#f7ebeb"/><stop offset=".15" stop-color="#f2e3e2"/><stop offset=".39" stop-color="#e5cec9"/><stop offset=".64" stop-color="#d5b3aa"/></linearGradient><linearGradient id="ac" x1="356.14" y1="148.42" x2="392.55" y2="148.42" gradientTransform="translate(-133.51 136.09) rotate(-22.47)" gradientUnits="userSpaceOnUse"><stop offset="0" stop-color="#f7ebeb"/><stop offset=".23" stop-color="#f2e3e2"/><stop offset=".61" stop-color="#e5cec9"/><stop offset="1" stop-color="#d5b3aa"/></linearGradient><linearGradient id="ad" x1="300.28" y1="197.15" x2="356.6" y2="197.15" gradientTransform="translate(-133.51 136.09) rotate(-22.47)" xlink:href="#i"/><linearGradient id="ae" x1="356.97" y1="214.76" x2="407.28" y2="214.76" gradientTransform="translate(-133.51 136.09) rotate(-22.47)" xlink:href="#i"/><linearGradient id="af" x1="300.28" y1="53.22" x2="323.16" y2="53.22" gradientTransform="translate(-133.51 136.09) rotate(-22.47)" xlink:href="#i"/><linearGradient id="ag" x1="326.51" y1="61.68" x2="382.15" y2="61.68" gradientTransform="translate(-133.51 136.09) rotate(-22.47)" xlink:href="#i"/><linearGradient id="ah" x1="383.34" y1="63.33" x2="407.28" y2="63.33" gradientTransform="translate(-133.51 136.09) rotate(-22.47)" xlink:href="#i"/><linearGradient id="ai" x1="304.58" y1="63.97" x2="331.54" y2="63.97" gradientTransform="translate(-133.51 136.09) rotate(-22.47)" gradientUnits="userSpaceOnUse"><stop offset="0" stop-color="#834016"/><stop offset=".54" stop-color="#eebd62"/><stop offset=".56" stop-color="#e6b45c"/><stop offset=".71" stop-color="#bb823e"/><stop offset=".83" stop-color="#9c5e28"/><stop offset=".93" stop-color="#89481a"/><stop offset="1" stop-color="#834016"/></linearGradient><linearGradient id="aj" x1="329.34" y1="205.8" x2="368.03" y2="205.8" gradientTransform="translate(-133.51 136.09) rotate(-22.47)" gradientUnits="userSpaceOnUse"><stop offset="0" stop-color="#eebd62"/><stop offset=".02" stop-color="#e6b45c"/><stop offset=".12" stop-color="#bb823e"/><stop offset=".21" stop-color="#9c5e28"/><stop offset=".29" stop-color="#89481a"/><stop offset=".33" stop-color="#834016"/></linearGradient><linearGradient id="ak" x1="356.19" y1="78.09" x2="391.85" y2="78.09" xlink:href="#ai"/><linearGradient id="al" x1="356.26" y1="214.52" x2="391.01" y2="214.52" xlink:href="#ai"/></defs><g class="bv"><g id="a"/><g id="b"><g id="c"><g><g><path class="bs" d="M102.85,96.13c.12-.17,.18-.38,.18-.6,0-.37-.19-.7-.47-.89-.17-.12-.38-.18-.6-.18-.15,0-.29,.03-.42,.08-.39,.16-.66,.55-.66,.99,0,.22,.07,.43,.18,.6,.12,.17,.28,.31,.47,.39,.13,.05,.27,.08,.42,.08,.22,0,.43-.07,.6-.18,.11-.08,.21-.18,.29-.29Z"/><path class="bs" d="M124.57,84.75c0-.52-.37-.95-.86-1.05-.07-.01-.14-.02-.22-.02-.59,0-1.08,.48-1.08,1.08s.48,1.08,1.08,1.08c.07,0,.15,0,.22-.02,.49-.1,.86-.54,.86-1.06Z"/><path class="bs" d="M133.18,84.75c0,.28,.11,.52,.28,.72,.43-.55,.85-1.11,1.24-1.69-.14-.06-.28-.1-.44-.1-.59,0-1.08,.48-1.08,1.08Z"/><path class="bs" d="M129.96,79.37c0-.6-.48-1.08-1.08-1.08s-1.08,.48-1.08,1.08,.48,1.08,1.08,1.08,1.08-.48,1.08-1.08Z"/><path class="bs" d="M127.8,90.14c0,.3,.13,.58,.33,.77,.56-.45,1.1-.92,1.62-1.4-.2-.27-.51-.45-.87-.45-.59,0-1.08,.48-1.08,1.08Z"/><path class="bs" d="M124.55,74.2c.01-.07,.02-.14,.02-.22,0-.15-.03-.29-.08-.42-.14-.32-.42-.56-.77-.64-.07-.01-.14-.02-.22-.02-.45,0-.83,.27-.99,.66-.05,.13-.08,.27-.08,.42,0,.07,0,.15,.02,.22,.1,.49,.53,.86,1.05,.86,.07,0,.15,0,.22-.02,.42-.09,.75-.42,.84-.84Z"/><path class="bs" d="M135.32,74.2c.01-.07,.02-.14,.02-.22,0-.15-.03-.29-.08-.42-.16-.39-.55-.66-.99-.66s-.83,.27-.99,.66c-.05,.13-.08,.27-.08,.42,0,.07,0,.15,.02,.22,.1,.49,.54,.86,1.06,.86s.95-.37,1.05-.86Z"/><path class="bs" d="M103.03,84.75c0-.37-.19-.7-.47-.89-.17-.12-.38-.18-.6-.18-.15,0-.29,.03-.42,.08-.39,.16-.66,.55-.66,.99s.27,.83,.66,.99c.13,.05,.27,.08,.42,.08,.22,0,.43-.07,.6-.18,.29-.19,.47-.52,.47-.89Z"/><path class="bs" d="M111.65,95.52c0,.22,.07,.43,.18,.6,.19,.29,.52,.47,.89,.47s.7-.19,.89-.47c.12-.17,.18-.38,.18-.6,0-.6-.48-1.08-1.08-1.08s-1.08,.48-1.08,1.08Z"/><path class="bs" d="M113.8,84.75c0-.6-.48-1.08-1.08-1.08s-1.08,.48-1.08,1.08,.48,1.08,1.08,1.08,1.08-.48,1.08-1.08Z"/><path class="bs" d="M108.42,79.37c0-.6-.48-1.08-1.08-1.08s-1.08,.48-1.08,1.08,.48,1.08,1.08,1.08,1.08-.48,1.08-1.08Z"/><path class="bs" d="M108.42,90.14c0-.6-.48-1.08-1.08-1.08s-1.08,.48-1.08,1.08,.48,1.08,1.08,1.08,1.08-.48,1.08-1.08Z"/><path class="bs" d="M119.19,79.37c0-.6-.48-1.08-1.08-1.08s-1.08,.48-1.08,1.08,.48,1.08,1.08,1.08,1.08-.48,1.08-1.08Z"/><path class="bs" d="M119.19,90.14c0-.6-.48-1.08-1.08-1.08s-1.08,.48-1.08,1.08,.48,1.08,1.08,1.08,1.08-.48,1.08-1.08Z"/><path class="bs" d="M103.01,74.2c.01-.07,.02-.14,.02-.22,0-.15-.03-.29-.08-.42-.08-.19-.22-.36-.39-.47-.17-.12-.38-.18-.6-.18-.15,0-.29,.03-.42,.08-.26,.11-.46,.32-.57,.57-.05,.13-.08,.27-.08,.42,0,.07,0,.15,.02,.22,.07,.35,.31,.64,.64,.77,.13,.05,.27,.08,.42,.08,.22,0,.43-.07,.6-.18,.23-.15,.4-.4,.45-.68Z"/><path class="bs" d="M113.78,74.2c.01-.07,.02-.14,.02-.22,0-.15-.03-.29-.08-.42-.16-.39-.55-.66-.99-.66s-.83,.27-.99,.66c-.05,.13-.08,.27-.08,.42,0,.07,0,.15,.02,.22,.1,.49,.54,.86,1.06,.86s.95-.37,1.05-.86Z"/><path class="bs" d="M81.31,85.36c.08-.11,.13-.24,.16-.39,.01-.07,.02-.14,.02-.22s0-.15-.02-.22c-.03-.14-.08-.27-.16-.38-.04-.06-.08-.11-.13-.16-.15-.15-.33-.25-.54-.29-.07-.01-.14-.02-.22-.02-.27,0-.52,.1-.71,.27,.23,.33,.46,.67,.71,.99,.18,.25,.38,.48,.57,.72,.07-.04,.14-.09,.19-.15,.05-.05,.09-.1,.13-.16Z"/><path class="bs" d="M92.26,84.75c0-.6-.48-1.08-1.08-1.08s-1.08,.48-1.08,1.08,.48,1.08,1.08,1.08,1.08-.48,1.08-1.08Z"/><path class="bs" d="M86.88,79.37c0-.6-.48-1.08-1.08-1.08s-1.08,.48-1.08,1.08,.48,1.08,1.08,1.08,1.08-.48,1.08-1.08Z"/><path class="bs" d="M86.88,90.14c0-.6-.48-1.08-1.08-1.08-.46,0-.85,.29-1,.69,.5,.45,1.02,.89,1.55,1.31,.31-.19,.53-.53,.53-.92Z"/><path class="bs" d="M97.65,79.37c0-.6-.48-1.08-1.08-1.08s-1.08,.48-1.08,1.08,.48,1.08,1.08,1.08,1.08-.48,1.08-1.08Z"/><path class="bs" d="M97.65,90.14c0-.6-.48-1.08-1.08-1.08s-1.08,.48-1.08,1.08,.48,1.08,1.08,1.08,1.08-.48,1.08-1.08Z"/><path class="bs" d="M81.18,74.75s.09-.1,.13-.16c.08-.11,.13-.24,.16-.38,.01-.07,.02-.14,.02-.22s0-.15-.02-.22c-.01-.07-.04-.14-.06-.2-.03-.06-.06-.13-.1-.18s-.08-.11-.13-.16c-.15-.15-.33-.25-.54-.29-.07-.01-.14-.02-.22-.02-.45,0-.83,.27-.99,.66-.05,.13-.08,.27-.08,.42,0,.07,0,.15,.02,.22,.1,.49,.53,.86,1.05,.86,.07,0,.15,0,.22-.02,.21-.04,.4-.15,.54-.29Z"/><path class="bs" d="M92.24,74.2c.01-.07,.02-.14,.02-.22,0-.15-.03-.29-.08-.42-.16-.39-.55-.66-.99-.66s-.83,.27-.99,.66c-.05,.13-.08,.27-.08,.42,0,.07,0,.15,.02,.22,.1,.49,.54,.86,1.06,.86s.95-.37,1.05-.86Z"/><path class="bs" d="M124.57,63.22c0-.52-.37-.95-.86-1.05-.07-.01-.14-.02-.22-.02-.59,0-1.08,.48-1.08,1.08s.48,1.08,1.08,1.08c.07,0,.15,0,.22-.02,.49-.1,.86-.54,.86-1.06Z"/><path class="bs" d="M135.34,63.22c0-.6-.48-1.08-1.08-1.08s-1.08,.48-1.08,1.08,.48,1.08,1.08,1.08,1.08-.48,1.08-1.08Z"/><path class="bs" d="M129.96,57.83c0-.6-.48-1.08-1.08-1.08s-1.08,.48-1.08,1.08,.48,1.08,1.08,1.08,1.08-.48,1.08-1.08Z"/><path class="bs" d="M129.96,68.6c0-.6-.48-1.08-1.08-1.08s-1.08,.48-1.08,1.08,.48,1.08,1.08,1.08,1.08-.48,1.08-1.08Z"/><path class="bs" d="M139.46,56.77c-.51,.09-.89,.53-.89,1.06,0,.59,.48,1.08,1.08,1.08,.09,0,.18-.02,.27-.04-.13-.71-.28-1.41-.45-2.1Z"/><path class="bs" d="M140.36,67.8c-.19-.17-.44-.28-.72-.28-.59,0-1.08,.48-1.08,1.08s.48,1.08,1.08,1.08c.19,0,.37-.05,.53-.14,.08-.57,.14-1.15,.19-1.73Z"/><path class="bs" d="M124.39,53.05c.12-.17,.18-.38,.18-.6,0-.15-.03-.29-.08-.42-.14-.32-.42-.56-.77-.64-.07-.01-.14-.02-.22-.02-.45,0-.83,.27-.99,.66-.05,.13-.08,.27-.08,.42,0,.22,.07,.43,.18,.6,.19,.29,.52,.47,.89,.47,.07,0,.15,0,.22-.02,.28-.06,.52-.22,.68-.45Z"/><path class="bs" d="M135.16,53.05c.12-.17,.18-.38,.18-.6,0-.15-.03-.29-.08-.42-.16-.39-.55-.66-.99-.66s-.83,.27-.99,.66c-.05,.13-.08,.27-.08,.42,0,.22,.07,.43,.18,.6,.19,.29,.52,.47,.89,.47s.7-.19,.89-.47Z"/><path class="bs" d="M103.03,63.22c0-.37-.19-.7-.47-.89-.17-.12-.38-.18-.6-.18-.15,0-.29,.03-.42,.08-.39,.16-.66,.55-.66,.99s.27,.83,.66,.99c.13,.05,.27,.08,.42,.08,.22,0,.43-.07,.6-.18,.29-.19,.47-.52,.47-.89Z"/><path class="bs" d="M113.8,63.22c0-.6-.48-1.08-1.08-1.08s-1.08,.48-1.08,1.08,.48,1.08,1.08,1.08,1.08-.48,1.08-1.08Z"/><path class="bs" d="M108.42,57.83c0-.6-.48-1.08-1.08-1.08s-1.08,.48-1.08,1.08,.48,1.08,1.08,1.08,1.08-.48,1.08-1.08Z"/><path class="bs" d="M108.42,68.6c0-.6-.48-1.08-1.08-1.08s-1.08,.48-1.08,1.08,.48,1.08,1.08,1.08,1.08-.48,1.08-1.08Z"/><path class="bs" d="M119.19,57.83c0-.6-.48-1.08-1.08-1.08s-1.08,.48-1.08,1.08,.48,1.08,1.08,1.08,1.08-.48,1.08-1.08Z"/><path class="bs" d="M119.19,68.6c0-.6-.48-1.08-1.08-1.08s-1.08,.48-1.08,1.08,.48,1.08,1.08,1.08,1.08-.48,1.08-1.08Z"/><path class="bs" d="M102.85,53.05c.12-.17,.18-.38,.18-.6,0-.15-.03-.29-.08-.42-.08-.19-.22-.36-.39-.47-.17-.12-.38-.18-.6-.18-.15,0-.29,.03-.42,.08-.26,.11-.46,.32-.57,.57-.05,.13-.08,.27-.08,.42,0,.22,.07,.43,.18,.6s.28,.31,.47,.39c.13,.05,.27,.08,.42,.08,.22,0,.43-.07,.6-.18,.11-.08,.21-.18,.29-.29Z"/><path class="bs" d="M113.62,53.05c.12-.17,.18-.38,.18-.6,0-.15-.03-.29-.08-.42-.16-.39-.55-.66-.99-.66s-.83,.27-.99,.66c-.05,.13-.08,.27-.08,.42,0,.22,.07,.43,.18,.6,.19,.29,.52,.47,.89,.47s.7-.19,.89-.47Z"/><path class="bs" d="M81.18,63.98s.09-.1,.13-.16c.08-.11,.13-.24,.16-.39,.01-.07,.02-.14,.02-.22s0-.15-.02-.22c-.03-.14-.08-.27-.16-.39-.04-.06-.08-.11-.13-.16-.15-.15-.33-.25-.54-.29-.07-.01-.14-.02-.22-.02-.59,0-1.08,.48-1.08,1.08s.48,1.08,1.08,1.08c.07,0,.15,0,.22-.02,.21-.04,.4-.15,.54-.29Z"/><path class="bs" d="M92.26,63.22c0-.6-.48-1.08-1.08-1.08s-1.08,.48-1.08,1.08,.48,1.08,1.08,1.08,1.08-.48,1.08-1.08Z"/><path class="bs" d="M86.88,57.83c0-.6-.48-1.08-1.08-1.08s-1.08,.48-1.08,1.08,.48,1.08,1.08,1.08,1.08-.48,1.08-1.08Z"/><path class="bs" d="M86.88,68.6c0-.6-.48-1.08-1.08-1.08s-1.08,.48-1.08,1.08,.48,1.08,1.08,1.08,1.08-.48,1.08-1.08Z"/><path class="bs" d="M97.65,57.83c0-.6-.48-1.08-1.08-1.08s-1.08,.48-1.08,1.08,.48,1.08,1.08,1.08,1.08-.48,1.08-1.08Z"/><path class="bs" d="M97.65,68.6c0-.6-.48-1.08-1.08-1.08s-1.08,.48-1.08,1.08,.48,1.08,1.08,1.08,1.08-.48,1.08-1.08Z"/><path class="bs" d="M81.18,53.21s.09-.1,.13-.16c.08-.11,.13-.24,.16-.38,.01-.07,.02-.14,.02-.22s0-.15-.02-.22c-.01-.07-.04-.14-.06-.2-.03-.06-.06-.13-.1-.18-.04-.06-.08-.11-.13-.16-.15-.15-.33-.25-.54-.29-.07-.01-.14-.02-.22-.02-.45,0-.83,.27-.99,.66-.05,.13-.08,.27-.08,.42,0,.22,.07,.43,.18,.6,.19,.29,.52,.47,.89,.47,.07,0,.15,0,.22-.02,.21-.04,.4-.15,.54-.29Z"/><path class="bs" d="M92.08,53.05c.12-.17,.18-.38,.18-.6,0-.15-.03-.29-.08-.42-.16-.39-.55-.66-.99-.66s-.83,.27-.99,.66c-.05,.13-.08,.27-.08,.42,0,.22,.07,.43,.18,.6,.19,.29,.52,.47,.89,.47s.7-.19,.89-.47Z"/><path class="bs" d="M76.11,57.83c0-.6-.48-1.08-1.08-1.08-.07,0-.14,0-.2,.02-.16,.64-.3,1.28-.42,1.93,.18,.13,.39,.2,.63,.2,.6,0,1.08-.48,1.08-1.08Z"/><path class="bs" d="M76.11,68.6c0-.6-.48-1.08-1.08-1.08-.53,0-.97,.38-1.06,.88,.02,.22,.06,.43,.08,.64,.17,.37,.54,.63,.98,.63,.6,0,1.08-.48,1.08-1.08Z"/><path class="bs" d="M124.57,41.68c0-.52-.37-.95-.86-1.05-.07-.01-.14-.02-.22-.02-.59,0-1.08,.48-1.08,1.08s.48,1.08,1.08,1.08c.07,0,.15,0,.22-.02,.49-.1,.86-.54,.86-1.06Z"/><path class="bs" d="M129.96,47.06c0-.6-.48-1.08-1.08-1.08s-1.08,.48-1.08,1.08,.48,1.08,1.08,1.08,1.08-.48,1.08-1.08Z"/><path class="bs" d="M103.03,41.68c0-.37-.19-.7-.47-.89-.17-.12-.38-.18-.6-.18-.15,0-.29,.03-.42,.08-.39,.16-.66,.55-.66,.99s.27,.83,.66,.99c.13,.05,.27,.08,.42,.08,.22,0,.43-.07,.6-.18,.29-.19,.47-.52,.47-.89Z"/><path class="bs" d="M113.8,41.68c0-.6-.48-1.08-1.08-1.08s-1.08,.48-1.08,1.08,.48,1.08,1.08,1.08,1.08-.48,1.08-1.08Z"/><path class="bs" d="M108.42,36.29c0-.6-.48-1.08-1.08-1.08s-1.08,.48-1.08,1.08,.48,1.08,1.08,1.08,1.08-.48,1.08-1.08Z"/><path class="bs" d="M108.42,47.06c0-.6-.48-1.08-1.08-1.08s-1.08,.48-1.08,1.08,.48,1.08,1.08,1.08,1.08-.48,1.08-1.08Z"/><path class="bs" d="M119.19,36.29c0-.6-.48-1.08-1.08-1.08s-1.08,.48-1.08,1.08,.48,1.08,1.08,1.08,1.08-.48,1.08-1.08Z"/><path class="bs" d="M119.19,47.06c0-.6-.48-1.08-1.08-1.08s-1.08,.48-1.08,1.08,.48,1.08,1.08,1.08,1.08-.48,1.08-1.08Z"/><path class="bs" d="M92.26,41.68c0-.6-.48-1.08-1.08-1.08s-1.08,.48-1.08,1.08,.48,1.08,1.08,1.08,1.08-.48,1.08-1.08Z"/><path class="bs" d="M86.88,47.06c0-.6-.48-1.08-1.08-1.08s-1.08,.48-1.08,1.08,.48,1.08,1.08,1.08,1.08-.48,1.08-1.08Z"/><path class="bs" d="M97.65,36.29c0-.6-.48-1.08-1.08-1.08s-1.08,.48-1.08,1.08,.48,1.08,1.08,1.08,1.08-.48,1.08-1.08Z"/><path class="bs" d="M97.65,47.06c0-.6-.48-1.08-1.08-1.08s-1.08,.48-1.08,1.08,.48,1.08,1.08,1.08,1.08-.48,1.08-1.08Z"/></g><g><path class="bs" d="M307.84,393.85c.14-.21,.22-.46,.22-.72,0-.45-.23-.84-.57-1.07-.21-.14-.46-.22-.72-.22-.18,0-.35,.04-.5,.1-.46,.2-.79,.66-.79,1.19,0,.27,.08,.52,.22,.72,.14,.21,.34,.37,.57,.47,.15,.07,.32,.1,.5,.1,.27,0,.52-.08,.72-.22,.14-.09,.26-.21,.35-.35Z"/><path class="bs" d="M333.94,380.19c0-.63-.44-1.15-1.03-1.27-.08-.02-.17-.03-.26-.03-.71,0-1.29,.58-1.29,1.29s.58,1.29,1.29,1.29c.09,0,.18,0,.26-.03,.59-.12,1.03-.64,1.03-1.27Z"/><path class="bs" d="M344.28,380.19c0,.33,.13,.63,.33,.86,.52-.66,1.02-1.34,1.49-2.04-.16-.07-.34-.12-.53-.12-.71,0-1.3,.58-1.3,1.29Z"/><path class="bs" d="M340.4,373.72c0-.72-.58-1.29-1.3-1.29s-1.29,.58-1.29,1.29,.58,1.29,1.29,1.29,1.3-.58,1.3-1.29Z"/><path class="bs" d="M337.82,386.66c0,.37,.15,.69,.4,.93,.67-.54,1.32-1.1,1.95-1.68-.23-.33-.62-.54-1.05-.54-.71,0-1.29,.58-1.29,1.29Z"/><path class="bs" d="M333.91,367.52c.02-.08,.03-.17,.03-.26,0-.18-.04-.35-.1-.5-.16-.39-.51-.68-.93-.76-.08-.02-.17-.03-.26-.03-.54,0-1,.33-1.19,.79-.07,.15-.1,.33-.1,.5,0,.09,0,.18,.03,.26,.12,.59,.64,1.03,1.27,1.03,.09,0,.18,0,.26-.03,.51-.1,.9-.5,1.01-1.01Z"/><path class="bs" d="M346.85,367.52c.02-.08,.03-.17,.03-.26,0-.18-.04-.35-.1-.5-.2-.46-.66-.79-1.19-.79s-1,.33-1.19,.79c-.07,.15-.1,.33-.1,.5,0,.09,0,.18,.03,.26,.12,.59,.64,1.03,1.27,1.03s1.15-.44,1.27-1.03Z"/><path class="bs" d="M308.06,380.19c0-.45-.23-.84-.57-1.07-.21-.14-.46-.22-.72-.22-.18,0-.35,.04-.5,.1-.46,.2-.79,.66-.79,1.19s.33,1,.79,1.19c.15,.07,.32,.1,.5,.1,.27,0,.52-.08,.72-.22,.34-.23,.57-.63,.57-1.07Z"/><path class="bs" d="M318.41,393.13c0,.27,.08,.52,.22,.72,.23,.34,.63,.57,1.07,.57s.84-.23,1.07-.57c.14-.21,.22-.46,.22-.72,0-.72-.58-1.29-1.29-1.29s-1.3,.58-1.3,1.29Z"/><path class="bs" d="M321,380.19c0-.72-.58-1.29-1.29-1.29s-1.3,.58-1.3,1.29,.58,1.29,1.3,1.29,1.29-.58,1.29-1.29Z"/><path class="bs" d="M314.53,373.72c0-.72-.58-1.29-1.3-1.29s-1.29,.58-1.29,1.29,.58,1.29,1.29,1.29,1.3-.58,1.3-1.29Z"/><path class="bs" d="M314.53,386.66c0-.72-.58-1.29-1.3-1.29s-1.29,.58-1.29,1.29,.58,1.29,1.29,1.29,1.3-.58,1.3-1.29Z"/><path class="bs" d="M327.47,373.72c0-.72-.58-1.29-1.29-1.29s-1.29,.58-1.29,1.29,.58,1.29,1.29,1.29,1.29-.58,1.29-1.29Z"/><path class="bs" d="M327.47,386.66c0-.72-.58-1.29-1.29-1.29s-1.29,.58-1.29,1.29,.58,1.29,1.29,1.29,1.29-.58,1.29-1.29Z"/><path class="bs" d="M308.03,367.52c.02-.08,.03-.17,.03-.26,0-.18-.04-.35-.1-.5-.1-.23-.26-.43-.47-.57-.21-.14-.46-.22-.72-.22-.18,0-.35,.04-.5,.1-.31,.13-.56,.38-.69,.69-.07,.15-.1,.33-.1,.5,0,.09,0,.18,.03,.26,.09,.42,.38,.77,.76,.93,.15,.07,.32,.1,.5,.1,.27,0,.52-.08,.72-.22,.28-.19,.48-.47,.54-.81Z"/><path class="bs" d="M320.97,367.52c.02-.08,.03-.17,.03-.26,0-.18-.04-.35-.1-.5-.2-.46-.66-.79-1.19-.79s-1,.33-1.19,.79c-.07,.15-.1,.33-.1,.5,0,.09,0,.18,.03,.26,.12,.59,.64,1.03,1.27,1.03s1.15-.44,1.27-1.03Z"/><path class="bs" d="M281.96,380.92c.09-.14,.16-.29,.19-.46,.02-.08,.03-.17,.03-.26s0-.18-.03-.26c-.03-.17-.1-.32-.19-.46-.05-.07-.1-.13-.16-.19-.18-.18-.4-.3-.65-.35-.08-.02-.17-.03-.26-.03-.33,0-.62,.12-.85,.32,.28,.4,.56,.8,.85,1.19,.22,.3,.45,.58,.68,.87,.08-.05,.16-.11,.23-.18,.06-.06,.11-.12,.16-.19Z"/><path class="bs" d="M295.12,380.19c0-.72-.58-1.29-1.29-1.29s-1.3,.58-1.3,1.29,.58,1.29,1.3,1.29,1.29-.58,1.29-1.29Z"/><path class="bs" d="M288.65,373.72c0-.72-.58-1.29-1.3-1.29s-1.29,.58-1.29,1.29,.58,1.29,1.29,1.29,1.3-.58,1.3-1.29Z"/><path class="bs" d="M288.65,386.66c0-.72-.58-1.29-1.3-1.29-.55,0-1.02,.34-1.2,.83,.6,.55,1.23,1.07,1.86,1.57,.38-.23,.63-.64,.63-1.11Z"/><path class="bs" d="M301.59,373.72c0-.72-.58-1.29-1.3-1.29s-1.29,.58-1.29,1.29,.58,1.29,1.29,1.29,1.3-.58,1.3-1.29Z"/><path class="bs" d="M301.59,386.66c0-.72-.58-1.29-1.3-1.29s-1.29,.58-1.29,1.29,.58,1.29,1.29,1.29,1.3-.58,1.3-1.29Z"/><path class="bs" d="M281.81,368.17c.06-.06,.11-.12,.16-.19,.09-.14,.16-.29,.19-.46,.02-.08,.03-.17,.03-.26s0-.18-.03-.26c-.02-.08-.04-.17-.08-.24s-.07-.15-.12-.22c-.05-.07-.1-.13-.16-.19-.18-.18-.4-.3-.65-.35-.08-.02-.17-.03-.26-.03-.54,0-1,.33-1.19,.79-.07,.15-.1,.33-.1,.5,0,.09,0,.18,.03,.26,.12,.59,.64,1.03,1.27,1.03,.09,0,.18,0,.26-.03,.25-.05,.48-.18,.65-.35Z"/><path class="bs" d="M295.1,367.52c.02-.08,.03-.17,.03-.26,0-.18-.04-.35-.1-.5-.2-.46-.66-.79-1.19-.79s-1,.33-1.19,.79c-.07,.15-.1,.33-.1,.5,0,.09,0,.18,.03,.26,.12,.59,.64,1.03,1.27,1.03s1.15-.44,1.27-1.03Z"/><path class="bs" d="M333.94,354.32c0-.63-.44-1.15-1.03-1.27-.08-.02-.17-.03-.26-.03-.71,0-1.29,.58-1.29,1.29s.58,1.29,1.29,1.29c.09,0,.18,0,.26-.03,.59-.12,1.03-.64,1.03-1.27Z"/><path class="bs" d="M346.87,354.32c0-.72-.58-1.29-1.29-1.29s-1.3,.58-1.3,1.29,.58,1.29,1.3,1.29,1.29-.58,1.29-1.29Z"/><path class="bs" d="M340.4,347.85c0-.72-.58-1.29-1.3-1.29s-1.29,.58-1.29,1.29,.58,1.29,1.29,1.29,1.3-.58,1.3-1.29Z"/><path class="bs" d="M340.4,360.79c0-.72-.58-1.29-1.3-1.29s-1.29,.58-1.29,1.29,.58,1.29,1.29,1.29,1.3-.58,1.3-1.29Z"/><path class="bs" d="M351.83,346.58c-.61,.1-1.07,.63-1.07,1.27,0,.71,.58,1.29,1.29,1.29,.11,0,.22-.02,.33-.05-.16-.85-.33-1.69-.54-2.52Z"/><path class="bs" d="M352.91,359.83c-.23-.21-.53-.33-.86-.33-.71,0-1.29,.58-1.29,1.29s.58,1.29,1.29,1.29c.23,0,.45-.07,.64-.17,.09-.69,.17-1.38,.23-2.08Z"/><path class="bs" d="M333.71,342.1c.14-.21,.22-.46,.22-.72,0-.18-.04-.35-.1-.5-.16-.39-.51-.68-.93-.76-.08-.02-.17-.03-.26-.03-.54,0-1,.33-1.19,.79-.07,.15-.1,.33-.1,.5,0,.27,.08,.52,.22,.72,.23,.34,.63,.57,1.07,.57,.09,0,.18,0,.26-.03,.34-.07,.63-.27,.81-.54Z"/><path class="bs" d="M346.65,342.1c.14-.21,.22-.46,.22-.72,0-.18-.04-.35-.1-.5-.2-.46-.66-.79-1.19-.79s-1,.33-1.19,.79c-.07,.15-.1,.33-.1,.5,0,.27,.08,.52,.22,.72,.23,.34,.63,.57,1.07,.57s.84-.23,1.07-.57Z"/><path class="bs" d="M308.06,354.32c0-.45-.23-.84-.57-1.07-.21-.14-.46-.22-.72-.22-.18,0-.35,.04-.5,.1-.46,.2-.79,.66-.79,1.19s.33,1,.79,1.19c.15,.07,.32,.1,.5,.1,.27,0,.52-.08,.72-.22,.34-.23,.57-.63,.57-1.07Z"/><path class="bs" d="M321,354.32c0-.72-.58-1.29-1.29-1.29s-1.3,.58-1.3,1.29,.58,1.29,1.3,1.29,1.29-.58,1.29-1.29Z"/><path class="bs" d="M314.53,347.85c0-.72-.58-1.29-1.3-1.29s-1.29,.58-1.29,1.29,.58,1.29,1.29,1.29,1.3-.58,1.3-1.29Z"/><path class="bs" d="M314.53,360.79c0-.72-.58-1.29-1.3-1.29s-1.29,.58-1.29,1.29,.58,1.29,1.29,1.29,1.3-.58,1.3-1.29Z"/><path class="bs" d="M327.47,347.85c0-.72-.58-1.29-1.29-1.29s-1.29,.58-1.29,1.29,.58,1.29,1.29,1.29,1.29-.58,1.29-1.29Z"/><path class="bs" d="M327.47,360.79c0-.72-.58-1.29-1.29-1.29s-1.29,.58-1.29,1.29,.58,1.29,1.29,1.29,1.29-.58,1.29-1.29Z"/><path class="bs" d="M307.84,342.1c.14-.21,.22-.46,.22-.72,0-.18-.04-.35-.1-.5-.1-.23-.26-.43-.47-.57s-.46-.22-.72-.22c-.18,0-.35,.04-.5,.1-.31,.13-.56,.38-.69,.69-.07,.15-.1,.33-.1,.5,0,.27,.08,.52,.22,.72,.14,.21,.34,.37,.57,.47,.15,.07,.32,.1,.5,.1,.27,0,.52-.08,.72-.22,.14-.09,.26-.21,.35-.35Z"/><path class="bs" d="M320.78,342.1c.14-.21,.22-.46,.22-.72,0-.18-.04-.35-.1-.5-.2-.46-.66-.79-1.19-.79s-1,.33-1.19,.79c-.07,.15-.1,.33-.1,.5,0,.27,.08,.52,.22,.72,.23,.34,.63,.57,1.07,.57s.84-.23,1.07-.57Z"/><path class="bs" d="M281.81,355.23c.06-.06,.11-.12,.16-.19,.09-.14,.16-.29,.19-.46,.02-.08,.03-.17,.03-.26s0-.18-.03-.26c-.03-.17-.1-.33-.19-.46-.05-.07-.1-.13-.16-.19-.18-.18-.4-.3-.65-.35-.08-.02-.17-.03-.26-.03-.71,0-1.29,.58-1.29,1.29s.58,1.29,1.29,1.29c.09,0,.18,0,.26-.03,.25-.05,.48-.18,.65-.35Z"/><path class="bs" d="M295.12,354.32c0-.72-.58-1.29-1.29-1.29s-1.3,.58-1.3,1.29,.58,1.29,1.3,1.29,1.29-.58,1.29-1.29Z"/><path class="bs" d="M288.65,347.85c0-.72-.58-1.29-1.3-1.29s-1.29,.58-1.29,1.29,.58,1.29,1.29,1.29,1.3-.58,1.3-1.29Z"/><path class="bs" d="M288.65,360.79c0-.72-.58-1.29-1.3-1.29s-1.29,.58-1.29,1.29,.58,1.29,1.29,1.29,1.3-.58,1.3-1.29Z"/><path class="bs" d="M301.59,347.85c0-.72-.58-1.29-1.3-1.29s-1.29,.58-1.29,1.29,.58,1.29,1.29,1.29,1.3-.58,1.3-1.29Z"/><path class="bs" d="M301.59,360.79c0-.72-.58-1.29-1.3-1.29s-1.29,.58-1.29,1.29,.58,1.29,1.29,1.29,1.3-.58,1.3-1.29Z"/><path class="bs" d="M281.81,342.29c.06-.06,.11-.12,.16-.19,.09-.14,.16-.29,.19-.46,.02-.08,.03-.17,.03-.26s0-.18-.03-.26c-.02-.08-.04-.17-.08-.24-.03-.08-.07-.15-.12-.22-.05-.07-.1-.13-.16-.19-.18-.18-.4-.3-.65-.35-.08-.02-.17-.03-.26-.03-.54,0-1,.33-1.19,.79-.07,.15-.1,.33-.1,.5,0,.27,.08,.52,.22,.72,.23,.34,.63,.57,1.07,.57,.09,0,.18,0,.26-.03,.25-.05,.48-.18,.65-.35Z"/><path class="bs" d="M294.9,342.1c.14-.21,.22-.46,.22-.72,0-.18-.04-.35-.1-.5-.2-.46-.66-.79-1.19-.79s-1,.33-1.19,.79c-.07,.15-.1,.33-.1,.5,0,.27,.08,.52,.22,.72,.23,.34,.63,.57,1.07,.57s.84-.23,1.07-.57Z"/><path class="bs" d="M275.72,347.85c0-.72-.58-1.29-1.3-1.29-.08,0-.16,0-.24,.02-.19,.76-.36,1.54-.51,2.32,.21,.15,.47,.25,.75,.25,.72,0,1.3-.58,1.3-1.29Z"/><path class="bs" d="M275.72,360.79c0-.72-.58-1.29-1.3-1.29-.63,0-1.16,.46-1.27,1.06,.03,.26,.07,.51,.1,.77,.2,.44,.65,.75,1.17,.75,.72,0,1.3-.58,1.3-1.29Z"/><path class="bs" d="M333.94,328.44c0-.63-.44-1.15-1.03-1.27-.08-.02-.17-.03-.26-.03-.71,0-1.29,.58-1.29,1.29s.58,1.29,1.29,1.29c.09,0,.18,0,.26-.03,.59-.12,1.03-.64,1.03-1.27Z"/><path class="bs" d="M340.4,334.91c0-.72-.58-1.29-1.3-1.29s-1.29,.58-1.29,1.29,.58,1.29,1.29,1.29,1.3-.58,1.3-1.29Z"/><path class="bs" d="M308.06,328.44c0-.45-.23-.84-.57-1.07-.21-.14-.46-.22-.72-.22-.18,0-.35,.04-.5,.1-.46,.2-.79,.66-.79,1.19s.33,1,.79,1.19c.15,.07,.32,.1,.5,.1,.27,0,.52-.08,.72-.22,.34-.23,.57-.63,.57-1.07Z"/><path class="bs" d="M321,328.44c0-.71-.58-1.29-1.29-1.29s-1.3,.58-1.3,1.29,.58,1.29,1.3,1.29,1.29-.58,1.29-1.29Z"/><path class="bs" d="M314.53,321.97c0-.71-.58-1.29-1.3-1.29s-1.29,.58-1.29,1.29,.58,1.29,1.29,1.29,1.3-.58,1.3-1.29Z"/><path class="bs" d="M314.53,334.91c0-.72-.58-1.29-1.3-1.29s-1.29,.58-1.29,1.29,.58,1.29,1.29,1.29,1.3-.58,1.3-1.29Z"/><path class="bs" d="M327.47,321.97c0-.71-.58-1.29-1.29-1.29s-1.29,.58-1.29,1.29,.58,1.29,1.29,1.29,1.29-.58,1.29-1.29Z"/><path class="bs" d="M327.47,334.91c0-.72-.58-1.29-1.29-1.29s-1.29,.58-1.29,1.29,.58,1.29,1.29,1.29,1.29-.58,1.29-1.29Z"/><path class="bs" d="M295.12,328.44c0-.71-.58-1.29-1.29-1.29s-1.3,.58-1.3,1.29,.58,1.29,1.3,1.29,1.29-.58,1.29-1.29Z"/><path class="bs" d="M288.65,334.91c0-.72-.58-1.29-1.3-1.29s-1.29,.58-1.29,1.29,.58,1.29,1.29,1.29,1.3-.58,1.3-1.29Z"/><path class="bs" d="M301.59,321.97c0-.71-.58-1.29-1.3-1.29s-1.29,.58-1.29,1.29,.58,1.29,1.29,1.29,1.3-.58,1.3-1.29Z"/><path class="bs" d="M301.59,334.91c0-.72-.58-1.29-1.3-1.29s-1.29,.58-1.29,1.29,.58,1.29,1.29,1.29,1.3-.58,1.3-1.29Z"/></g><path class="bs" d="M273.4,175.49H69.13v204.27h204.27V175.49Zm-12.73,203.74v-12.2h12.2v12.2h-12.2Zm-76.4-101.34h12.2v12.2h-12.2v-12.2Zm-.53,12.2h-12.2v-12.2h12.2v12.2Zm.53-12.73v-12.21h12.2v12.21h-12.2Zm-.53,0h-12.2v-12.21h12.2v12.21Zm-12.2-12.73v-12.2h12.2v12.2h-12.2Zm-.53,0h-12.21v-12.2h12.21v12.2Zm0,.53v12.21h-12.21v-12.21h12.21Zm-12.73,12.21h-12.2v-12.21h12.2v12.21Zm0,.53v12.2h-12.2v-12.2h12.2Zm.53,0h12.21v12.2h-12.21v-12.2Zm12.21,12.73v12.2h-12.21v-12.2h12.21Zm.53,0h12.2v12.2h-12.2v-12.2Zm12.73,0h12.2v12.2h-12.2v-12.2Zm12.73,0h12.21v12.2h-12.21v-12.2Zm0-.53v-12.2h12.21v12.2h-12.21Zm0-12.73v-12.21h12.21v12.21h-12.21Zm0-12.73v-12.2h12.21v12.2h-12.21Zm-.53,0h-12.2v-12.2h12.2v12.2Zm-12.2-12.73v-12.2h12.2v12.2h-12.2Zm-.53,0h-12.2v-12.2h12.2v12.2Zm-12.73,0h-12.21v-12.2h12.21v12.2Zm-12.73,0h-12.2v-12.2h12.2v12.2Zm0,.53v12.2h-12.2v-12.2h12.2Zm-12.73,12.2h-12.2v-12.2h12.2v12.2Zm0,.53v12.21h-12.2v-12.21h12.2Zm0,12.73v12.2h-12.2v-12.2h12.2Zm0,12.73v12.2h-12.2v-12.2h12.2Zm.53,0h12.2v12.2h-12.2v-12.2Zm12.2,12.73v12.2h-12.2v-12.2h12.2Zm.53,0h12.21v12.2h-12.21v-12.2Zm12.73,0h12.2v12.2h-12.2v-12.2Zm12.73,0h12.2v12.2h-12.2v-12.2Zm12.73,0h12.21v12.2h-12.21v-12.2Zm12.73,0h12.2v12.2h-12.2v-12.2Zm0-.53v-12.2h12.2v12.2h-12.2Zm0-12.73v-12.2h12.2v12.2h-12.2Zm0-12.73v-12.21h12.2v12.21h-12.2Zm0-12.73v-12.2h12.2v12.2h-12.2Zm0-12.73v-12.2h12.2v12.2h-12.2Zm-.53,0h-12.21v-12.2h12.21v12.2Zm-12.21-12.73v-12.2h12.21v12.2h-12.21Zm-.53,0h-12.2v-12.2h12.2v12.2Zm-12.73,0h-12.2v-12.2h12.2v12.2Zm-12.73,0h-12.21v-12.2h12.21v12.2Zm-12.73,0h-12.2v-12.2h12.2v12.2Zm-12.73,0h-12.2v-12.2h12.2v12.2Zm0,.53v12.2h-12.2v-12.2h12.2Zm-12.73,12.2h-12.2v-12.2h12.2v12.2Zm0,.53v12.2h-12.2v-12.2h12.2Zm0,12.73v12.21h-12.2v-12.21h12.2Zm0,12.73v12.2h-12.2v-12.2h12.2Zm0,12.73v12.2h-12.2v-12.2h12.2Zm0,12.73v12.2h-12.2v-12.2h12.2Zm.53,0h12.2v12.2h-12.2v-12.2Zm12.2,12.73v12.2h-12.2v-12.2h12.2Zm.53,0h12.2v12.2h-12.2v-12.2Zm12.73,0h12.21v12.2h-12.21v-12.2Zm12.73,0h12.2v12.2h-12.2v-12.2Zm12.73,0h12.2v12.2h-12.2v-12.2Zm12.73,0h12.21v12.2h-12.21v-12.2Zm12.73,0h12.2v12.2h-12.2v-12.2Zm12.73,0h12.2v12.2h-12.2v-12.2Zm0-.53v-12.2h12.2v12.2h-12.2Zm0-12.73v-12.2h12.2v12.2h-12.2Zm0-12.73v-12.2h12.2v12.2h-12.2Zm0-12.73v-12.21h12.2v12.21h-12.2Zm0-12.73v-12.2h12.2v12.2h-12.2Zm0-12.73v-12.2h12.2v12.2h-12.2Zm0-12.73v-12.2h12.2v12.2h-12.2Zm-.53,0h-12.2v-12.2h12.2v12.2Zm-12.2-12.73v-12.2h12.2v12.2h-12.2Zm-.53,0h-12.21v-12.2h12.21v12.2Zm-12.73,0h-12.2v-12.2h12.2v12.2Zm-12.73,0h-12.2v-12.2h12.2v12.2Zm-12.73,0h-12.21v-12.2h12.21v12.2Zm-12.73,0h-12.2v-12.2h12.2v12.2Zm-12.73,0h-12.2v-12.2h12.2v12.2Zm-12.73,0h-12.2v-12.2h12.2v12.2Zm0,.53v12.2h-12.2v-12.2h12.2Zm-12.73,12.2h-12.21v-12.2h12.21v12.2Zm0,.53v12.2h-12.21v-12.2h12.21Zm0,12.73v12.2h-12.21v-12.2h12.21Zm0,12.73v12.21h-12.21v-12.21h12.21Zm0,12.73v12.2h-12.21v-12.2h12.21Zm0,12.73v12.2h-12.21v-12.2h12.21Zm0,12.73v12.2h-12.21v-12.2h12.21Zm0,12.73v12.2h-12.21v-12.2h12.21Zm.53,0h12.2v12.2h-12.2v-12.2Zm12.2,12.73v12.21h-12.2v-12.21h12.2Zm.53,0h12.2v12.21h-12.2v-12.21Zm12.73,0h12.2v12.21h-12.2v-12.21Zm12.73,0h12.21v12.21h-12.21v-12.21Zm12.73,0h12.2v12.21h-12.2v-12.21Zm12.73,0h12.2v12.21h-12.2v-12.21Zm12.73,0h12.21v12.21h-12.21v-12.21Zm12.73,0h12.2v12.21h-12.2v-12.21Zm12.73,0h12.2v12.21h-12.2v-12.21Zm12.73,0h12.21v12.21h-12.21v-12.21Zm0-.53v-12.2h12.21v12.2h-12.21Zm0-12.73v-12.2h12.21v12.2h-12.21Zm0-12.73v-12.2h12.21v12.2h-12.21Zm0-12.73v-12.2h12.21v12.2h-12.21Zm0-12.73v-12.21h12.21v12.21h-12.21Zm0-12.73v-12.2h12.21v12.2h-12.21Zm0-12.73v-12.2h12.21v12.2h-12.21Zm0-12.73v-12.2h12.21v12.2h-12.21Zm0-12.73v-12.2h12.21v12.2h-12.21Zm-.53,0h-12.2v-12.2h12.2v12.2Zm-12.2-12.73v-12.2h12.2v12.2h-12.2Zm-.53,0h-12.2v-12.2h12.2v12.2Zm-12.73,0h-12.21v-12.2h12.21v12.2Zm-12.73,0h-12.2v-12.2h12.2v12.2Zm-12.73,0h-12.2v-12.2h12.2v12.2Zm-12.73,0h-12.21v-12.2h12.21v12.2Zm-12.73,0h-12.2v-12.2h12.2v12.2Zm-12.73,0h-12.2v-12.2h12.2v12.2Zm-12.73,0h-12.2v-12.2h12.2v12.2Zm-12.73,0h-12.21v-12.2h12.21v12.2Zm0,.53v12.2h-12.21v-12.2h12.21Zm-12.73,12.2h-12.2v-12.2h12.2v12.2Zm0,.53v12.2h-12.2v-12.2h12.2Zm0,12.73v12.2h-12.2v-12.2h12.2Zm0,12.73v12.2h-12.2v-12.2h12.2Zm0,12.73v12.21h-12.2v-12.21h12.2Zm0,12.73v12.2h-12.2v-12.2h12.2Zm0,12.73v12.2h-12.2v-12.2h12.2Zm0,12.73v12.2h-12.2v-12.2h12.2Zm0,12.73v12.2h-12.2v-12.2h12.2Zm0,12.73v12.21h-12.2v-12.21h12.2Zm.53,0h12.21v12.21h-12.21v-12.21Zm12.21,12.73v12.2h-12.21v-12.2h12.21Zm.53,0h12.2v12.2h-12.2v-12.2Zm12.73,0h12.2v12.2h-12.2v-12.2Zm12.73,0h12.2v12.2h-12.2v-12.2Zm12.73,0h12.21v12.2h-12.21v-12.2Zm12.73,0h12.2v12.2h-12.2v-12.2Zm12.73,0h12.2v12.2h-12.2v-12.2Zm12.73,0h12.21v12.2h-12.21v-12.2Zm12.73,0h12.2v12.2h-12.2v-12.2Zm12.73,0h12.2v12.2h-12.2v-12.2Zm12.73,0h12.21v12.2h-12.21v-12.2Zm12.73,0h12.2v12.2h-12.2v-12.2Zm0-.53v-12.21h12.2v12.21h-12.2Zm0-12.73v-12.2h12.2v12.2h-12.2Zm0-12.73v-12.2h12.2v12.2h-12.2Zm0-12.73v-12.2h12.2v12.2h-12.2Zm0-12.73v-12.2h12.2v12.2h-12.2Zm0-12.73v-12.21h12.2v12.21h-12.2Zm0-12.73v-12.2h12.2v12.2h-12.2Zm0-12.73v-12.2h12.2v12.2h-12.2Zm0-12.73v-12.2h12.2v12.2h-12.2Zm0-12.73v-12.2h12.2v12.2h-12.2Zm0-12.73v-12.2h12.2v12.2h-12.2Zm-.53,0h-12.21v-12.2h12.21v12.2Zm-12.21-12.73v-12.21h12.21v12.21h-12.21Zm-.53,0h-12.2v-12.21h12.2v12.21Zm-12.73,0h-12.2v-12.21h12.2v12.21Zm-12.73,0h-12.21v-12.21h12.21v12.21Zm-12.73,0h-12.2v-12.21h12.2v12.21Zm-12.73,0h-12.2v-12.21h12.2v12.21Zm-12.73,0h-12.21v-12.21h12.21v12.21Zm-12.73,0h-12.2v-12.21h12.2v12.21Zm-12.73,0h-12.2v-12.21h12.2v12.21Zm-12.73,0h-12.2v-12.21h12.2v12.21Zm-12.73,0h-12.21v-12.21h12.21v12.21Zm-12.73,0h-12.2v-12.21h12.2v12.21Zm0,.53v12.2h-12.2v-12.2h12.2Zm-12.73,12.2h-12.2v-12.2h12.2v12.2Zm0,.53v12.2h-12.2v-12.2h12.2Zm0,12.73v12.2h-12.2v-12.2h12.2Zm0,12.73v12.2h-12.2v-12.2h12.2Zm0,12.73v12.2h-12.2v-12.2h12.2Zm0,12.73v12.21h-12.2v-12.21h12.2Zm0,12.73v12.2h-12.2v-12.2h12.2Zm0,12.73v12.2h-12.2v-12.2h12.2Zm0,12.73v12.2h-12.2v-12.2h12.2Zm0,12.73v12.2h-12.2v-12.2h12.2Zm0,12.73v12.21h-12.2v-12.21h12.2Zm0,12.73v12.2h-12.2v-12.2h12.2Zm.53,0h12.2v12.2h-12.2v-12.2Zm12.2,12.73v12.2h-12.2v-12.2h12.2Zm.53,0h12.21v12.2h-12.21v-12.2Zm12.73,0h12.2v12.2h-12.2v-12.2Zm12.73,0h12.2v12.2h-12.2v-12.2Zm12.73,0h12.2v12.2h-12.2v-12.2Zm12.73,0h12.21v12.2h-12.21v-12.2Zm12.73,0h12.2v12.2h-12.2v-12.2Zm12.73,0h12.2v12.2h-12.2v-12.2Zm12.73,0h12.21v12.2h-12.21v-12.2Zm12.73,0h12.2v12.2h-12.2v-12.2Zm12.73,0h12.2v12.2h-12.2v-12.2Zm12.73,0h12.21v12.2h-12.21v-12.2Zm12.73,0h12.2v12.2h-12.2v-12.2Zm12.73,0h12.2v12.2h-12.2v-12.2Zm0-.53v-12.2h12.2v12.2h-12.2Zm0-12.73v-12.21h12.2v12.21h-12.2Zm0-12.73v-12.2h12.2v12.2h-12.2Zm0-12.73v-12.2h12.2v12.2h-12.2Zm0-12.73v-12.2h12.2v12.2h-12.2Zm0-12.73v-12.2h12.2v12.2h-12.2Zm0-12.73v-12.21h12.2v12.21h-12.2Zm0-12.73v-12.2h12.2v12.2h-12.2Zm0-12.73v-12.2h12.2v12.2h-12.2Zm0-12.73v-12.2h12.2v12.2h-12.2Zm0-12.73v-12.2h12.2v12.2h-12.2Zm0-12.73v-12.2h12.2v12.2h-12.2Zm0-12.73v-12.21h12.2v12.21h-12.2Zm-.53,0h-12.2v-12.21h12.2v12.21Zm-12.2-12.73v-12.2h12.2v12.2h-12.2Zm-.53,0h-12.21v-12.2h12.21v12.2Zm-12.73,0h-12.2v-12.2h12.2v12.2Zm-12.73,0h-12.2v-12.2h12.2v12.2Zm-12.73,0h-12.21v-12.2h12.21v12.2Zm-12.73,0h-12.2v-12.2h12.2v12.2Zm-12.73,0h-12.2v-12.2h12.2v12.2Zm-12.73,0h-12.21v-12.2h12.21v12.2Zm-12.73,0h-12.2v-12.2h12.2v12.2Zm-12.73,0h-12.2v-12.2h12.2v12.2Zm-12.73,0h-12.2v-12.2h12.2v12.2Zm-12.73,0h-12.21v-12.2h12.21v12.2Zm-12.73,0h-12.2v-12.2h12.2v12.2Zm-12.73,0h-12.2v-12.2h12.2v12.2Zm0,.53v12.21h-12.2v-12.21h12.2Zm-12.73,12.21h-12.2v-12.21h12.2v12.21Zm0,.53v12.2h-12.2v-12.2h12.2Zm0,12.73v12.2h-12.2v-12.2h12.2Zm0,12.73v12.2h-12.2v-12.2h12.2Zm0,12.73v12.2h-12.2v-12.2h12.2Zm0,12.73v12.2h-12.2v-12.2h12.2Zm0,12.73v12.21h-12.2v-12.21h12.2Zm0,12.73v12.2h-12.2v-12.2h12.2Zm0,12.73v12.2h-12.2v-12.2h12.2Zm0,12.73v12.2h-12.2v-12.2h12.2Zm0,12.73v12.2h-12.2v-12.2h12.2Zm0,12.73v12.21h-12.2v-12.21h12.2Zm0,12.73v12.2h-12.2v-12.2h12.2Zm0,12.73v12.2h-12.2v-12.2h12.2Zm.53,0h12.2v12.2h-12.2v-12.2Zm12.2,12.73v12.2h-12.2v-12.2h12.2Zm.53,0h12.2v12.2h-12.2v-12.2Zm12.73,0h12.21v12.2h-12.21v-12.2Zm12.73,0h12.2v12.2h-12.2v-12.2Zm12.73,0h12.2v12.2h-12.2v-12.2Zm12.73,0h12.2v12.2h-12.2v-12.2Zm12.73,0h12.21v12.2h-12.21v-12.2Zm12.73,0h12.2v12.2h-12.2v-12.2Zm12.73,0h12.2v12.2h-12.2v-12.2Zm12.73,0h12.21v12.2h-12.21v-12.2Zm12.73,0h12.2v12.2h-12.2v-12.2Zm12.73,0h12.2v12.2h-12.2v-12.2Zm12.73,0h12.21v12.2h-12.21v-12.2Zm12.73,0h12.2v12.2h-12.2v-12.2Zm24.94-178.8h-12.2v-12.2h12.2v12.2Zm-191.01-12.2v12.2h-12.2v-12.2h12.2Zm-12.2,191.01h12.2v12.2h-12.2v-12.2Z"/><ellipse class="by" cx="284.1" cy="379.76" rx="22.78" ry="22.39" transform="translate(-162.11 219.05) rotate(-33.39)"/><ellipse class="bx" cx="213.55" cy="321.83" rx="25.7" ry="32.72" transform="translate(-64.88 54.15) rotate(-12.56)"/><path class="aq" d="M130.42,516.13h0l.02-.08c.07-.24,.13-.49,.18-.75l6.37-26.93-27.5,3.09c-.26,.02-.52,.04-.77,.09h-.08c-.99,.2-1.87,.59-2.58,1.23-3.73,3.31-1.64,11.76,4.67,18.88,6.31,7.12,14.45,10.21,18.18,6.9,.71-.63,1.21-1.45,1.51-2.42Z"/><g><polygon class="ap" points="306.36 58.75 313.47 22.26 343.11 53.13 306.36 58.75"/><ellipse class="ax" cx="330.86" cy="35.22" rx="11.76" ry="22.44" transform="translate(67.82 238.98) rotate(-43.84)"/></g><g><polygon class="bu" points="120.35 63.5 75.8 36.18 131.04 12.35 120.35 63.5"/><ellipse class="aw" cx="101.44" cy="19.66" rx="31.55" ry="16.53" transform="translate(.51 41.79) rotate(-23.34)"/></g><g><polygon class="bu" points="201.94 529.14 179.66 515.48 207.28 503.56 201.94 529.14"/><ellipse class="b`" cx="192.48" cy="507.22" rx="15.77" ry="8.27" transform="translate(-185.19 117.76) rotate(-23.34)"/></g><g><polygon class="bt" points="47.46 218.47 48.2 452.48 112.76 424.8 112.04 189.48 47.46 218.47"/><g><polygon class="ay" points="99.22 337.55 88.84 238.33 189.13 294.31 99.22 337.55"/><ellipse class="bb" cx="143.64" cy="257.97" rx="31.56" ry="60.23" transform="translate(-151.62 257.67) rotate(-60.83)"/></g><path class="ba" d="M47.92,362.23l.28,86.88c-2.92-1.31-5.86-2.79-8.77-4.41-29.05-16.21-45.7-41.69-37.21-56.91,1.62-2.91,4.06-5.24,7.12-6.98h-.02l.28-.14c.77-.42,1.58-.82,2.44-1.17l35.89-17.26Z"/><path class="bc" d="M107.39,446.49c-7.26,13-30.53,14.31-55.26,4.31l2.41-1.03c6.86-51.18,14.17-90.53,22.56-101.57l6.03-2.9h0l16.09-7.74,9.32,89.06,.75,7.17c.14,.91,.24,1.81,.28,2.69l.03,.3h-.02c.13,3.51-.58,6.8-2.2,9.72Z"/><path class="as" d="M53.69,450.13c9.93-74.45,18.28-105.67,28.1-105.85,8.74-.16,17.33,26.8,26.83,82.4l-1.58,.27c-6.25-36.56-15.76-81.25-25.23-81.08-12.64,.23-23.01,77.77-26.47,103.7l-1.66,.55Z"/></g><path class="ar" d="M225.45,441.69h0l-.06-.06c-.15-.18-.32-.36-.49-.53l-17.65-18.91-11.85,22.99c-.12,.21-.23,.43-.33,.64l-.04,.07h0c-.37,.87-.52,1.75-.4,2.64,.64,4.62,8.3,7.37,17.11,6.15,8.81-1.22,15.43-5.95,14.79-10.56-.12-.88-.5-1.7-1.1-2.43Z"/><path class="bt" d="M53.68,156.62c-21.85,0-38.96-7.51-38.96-17.1,0-1.17,.26-2.33,.77-3.47h0l.1-.21c.8-1.64,2.13-3.22,3.96-4.67,6.79-5.4,19.87-8.75,34.13-8.75s27.33,3.35,34.13,8.75c1.84,1.45,3.18,3.03,3.97,4.69,.58,1.2,.87,2.43,.87,3.67,0,9.59-17.12,17.1-38.97,17.1Zm-36.34-20.04l-.05,.1c-.45,.94-.68,1.9-.68,2.85,0,8.24,16.98,15.21,37.07,15.21s37.08-6.96,37.08-15.21c0-.95-.23-1.91-.68-2.85-.67-1.39-1.83-2.75-3.44-4.02-6.48-5.14-19.1-8.34-32.95-8.34s-26.48,3.2-32.96,8.34c-1.57,1.25-2.71,2.57-3.39,3.92Z"/><g><polygon class="bt" points="290.11 400.97 297.19 451.86 367.97 405.16 360.47 354.06 290.11 400.97"/><polygon class="bt" points="254.01 369.05 262.25 426.8 301.71 349.48 293.53 291.02 254.01 369.05"/><g><polygon class="au" points="291.1 370.31 296.76 359.24 298.71 371.77 291.1 370.31"/><path class="av" d="M285.87,289.39l.04,.24,.35,2.22,1.62,10.4,4.02,25.82,.34,2.17c.29,4.21-.86,11-3.31,18.35-3.6,10.79-8.74,18.94-11.87,19.04l-.72-.14-19.61-3.76-37.42-7.18-2.25-.43-.24-.05,69.05-66.68Z"/><path class="at" d="M307.99,423.21c-.71-.74-1.27-1.61-1.66-2.58h0l-.76-4.85-3.54-22.75-3.31-21.26,27.33,5.24,16.41,3.15,4.83,.92c.96,.43,1.8,1.01,2.52,1.75,5.72,5.93,1.01,19.77-10.54,30.92-11.54,11.15-25.54,15.38-31.27,9.45Z"/><path class="an" d="M387.83,391.6c10.12,10.48,2.12,34.63-17.88,53.94-20,19.31-44.41,26.47-54.53,15.99-1.94-2-3.21-4.51-3.86-7.39h-.01l-.04-.24c-.15-.72-.27-1.47-.35-2.23l-1.27-8.18,58.08-38.32-3.04-20.69,13.19,2.53c.76,.1,1.5,.25,2.22,.43l.25,.05h-.01c2.85,.76,5.31,2.12,7.25,4.13Z"/><ellipse class="am" cx="245.8" cy="316.98" rx="50.33" ry="26.38" transform="translate(-151.21 259.71) rotate(-44)"/></g><path class="ao" d="M280.19,366.6c-1.08,1.05-2.14,1.66-3.11,1.69-.28,.01-.55-.03-.81-.11-.08-.03-.15-.06-.22-.09-3.7-1.7-2.13-13.3,1.23-23.39,1.87-5.61,4.21-10.69,6.6-14.32,1.79-2.73,4.41-5.82,6.7-5.06,.92,.31,1.58,1.18,1.97,2.58,.18,.63,.3,1.4,.36,2.3,.31,4.46-.94,11.41-3.34,18.61-2.42,7.24-6.04,14.58-9.37,17.81Zm7.39-38.76c-.75,.72-1.62,1.78-2.59,3.26-2.32,3.53-4.61,8.51-6.45,14.01-3.88,11.61-4.13,20.79-1.93,21.75l.07,.04c.11,.04,.22,.05,.34,.04,2.47-.08,7.47-7.2,11.27-18.58,2.34-7.04,3.57-13.8,3.27-18.09-.06-.8-.16-1.49-.32-2.03h0c-.18-.66-.51-1.47-1.11-1.67-.53-.18-1.4,.14-2.57,1.26Z"/><path class="be" d="M339.72,414.24c-11.79,11.39-26.24,15.62-32.21,9.44-.73-.76-1.32-1.65-1.75-2.67h0l-.05-.13c-.6-1.49-.87-3.21-.8-5.13,.27-7.19,5.31-16.37,13.16-23.95s17.19-12.3,24.38-12.32c1.92,0,3.64,.32,5.11,.98,1.05,.47,1.96,1.11,2.72,1.9,5.97,6.18,1.23,20.48-10.56,31.86Zm-32.81,6.07l.03,.08c.37,.91,.89,1.7,1.53,2.37,5.46,5.65,19.06,1.41,30.32-9.47,11.26-10.88,15.98-24.32,10.52-29.98-.64-.66-1.42-1.21-2.31-1.61-1.29-.58-2.83-.87-4.56-.87-6.86,.02-15.85,4.6-23.46,11.94-7.61,7.35-12.5,16.18-12.75,23.03-.06,1.69,.17,3.21,.68,4.5Z"/></g><path class="bd" d="M238.41,420.32c-1.95-3.74-8.99-3.03-14.56-1.78-4.56,1.03-9.79,2.78-15.26,5.09l1.69,1.82c5.06-2.09,9.86-3.67,14.08-4.63,3.02-.68,5.39-.96,7.22-.96,2.82,0,4.31,.67,4.76,1.53,.5,.96-.07,2.4-.63,3.44h0c-.47,.88-1.16,1.87-2.07,2.94-2.63,3.12-6.7,6.62-11.72,10.12-4.23,2.95-9.11,5.91-14.36,8.65-3.88,2.02-7.6,3.75-11.09,5.19-13.23,5.46-23.12,6.78-25.65,4.49-.16-.13-.28-.28-.37-.47l-.05-.14c-1.59-3.88,9.87-15.11,28.85-25.01,1.65-.86,3.29-1.67,4.92-2.45l1.74-3.37c-2.55,1.15-5.14,2.4-7.74,3.76-16.48,8.59-32.54,21.28-29.95,27.9,.05,.13,.1,.26,.17,.38,.21,.43,.52,.81,.89,1.14,1.25,1.14,3.33,1.65,5.95,1.65,5.92,0,14.69-2.57,23.59-6.37,3.3-1.4,6.62-2.97,9.82-4.64,5.45-2.84,10.52-5.92,14.89-8.99,5.07-3.57,9.2-7.13,11.9-10.35,1.01-1.2,1.79-2.32,2.34-3.33,1.22-2.22,1.44-4.12,.65-5.63Z"/><g><polygon class="bf" points="59.17 142.7 31.64 125.82 65.78 111.09 59.17 142.7"/><ellipse class="bo" cx="47.48" cy="115.61" rx="19.5" ry="10.22" transform="translate(-41.92 28.27) rotate(-23.34)"/></g><ellipse class="bw" cx="148.62" cy="133.93" rx="36.99" ry="80.29"/><g><polygon class="bh" points="184.42 30.22 169.67 88.69 272.53 247.25 279.47 222.22 251.77 131.07 193.96 44.04 184.42 30.22"/><polygon class="bq" points="238.29 7.93 223.94 66.62 299.99 252.32 313.48 189.68 238.29 7.93"/><g><path class="bu" d="M173.11,85.19c.06,.05,.13,.1,.2,.14l-.22-.14h.02Z"/><path class="bu" d="M224.61,63.88l-.67,2.73,6.53,15.94,18.54,45.28-1.09,4.83-.4-.25h0l-.07-.05h0l-72.08-45.72c1.07,.6,2.22,1.14,3.45,1.61,5.94,2.3,13.63,3.1,22.19,2.31-.22-3.82-1.44-9.05-3.43-15.49l27.04-11.19Z"/><path class="bu" d="M267.37,46.19l-.06,.25-.53,2.33-4.08,18.17-6.18,27.47-.62,2.77c-2.18,5.62-9.34,2.45-25.26-14.71,8.86-3.99,16.55-8.96,22.58-14.34-.97-4.61-2.07-9.57-3.24-14.76l17.38-7.19Z"/><path class="bk" d="M247.93,132.66l4.14,2.63,12.4,30.26h0l27.38,66.87c-.74,.33-1.49,.65-2.25,.97-4.88,2.02-9.76,3.6-14.5,4.75-.01,0-.02,0-.04,.01-2.52,.61-5,1.1-7.43,1.48-.01,0-.03,0-.04,0-.35,.05-.69,.1-1.02,.15h0c-18.05,2.51-32.9-1.67-37.12-11.85-1.13-2.74-1.42-5.71-.94-8.81h-.02l.06-.26c.13-.77,.3-1.55,.53-2.34l6.05-26.92v-.06l30.07,46.32c-12.07-34.31-24.56-62.92-23.79-74.19l.63-2.82,5.81-25.84v-.06l.08-.3Z"/><path class="bm" d="M328.31,187.02c4.63,11.18-4.95,26.3-22.39,37.77-4.06,2.67-8.56,5.15-13.4,7.33-6.87-37.49-19.01-79.17-7.23-75.76l5.87,3.72,13.65,8.66,15.7,9.96c.71,.4,1.39,.83,2.03,1.29l.23,.15h-.02c2.53,1.86,4.43,4.17,5.56,6.9Z"/><path class="bn" d="M179.9,48.3l-8.86,35.13c-1.51-1.49-2.69-3.21-3.49-5.13-3.64-8.8,1.51-20.02,12.35-29.99Z"/><path class="bg" d="M206.26,31.94c9.64-3.99,19.22-6.26,27.85-6.9l-9.5,38.85-.67,2.73,6.53,15.94c-.91,.41-1.84,.81-2.78,1.2-2.64,1.09-5.27,2.05-7.88,2.89-.01,0-.03,.01-.04,.01-6.49,2.08-12.84,3.37-18.77,3.91-.22-3.82-1.44-9.05-3.43-15.49-2.66-8.62-6.68-19.41-11.49-31.86,1.57-1.16,3.23-2.3,4.96-3.4,.01,0,.02-.01,.03-.02,4.58-2.92,9.68-5.58,15.18-7.85Z"/><path class="bi" d="M266.41,37.39c1.13,2.74,1.41,5.71,.94,8.81,0,.08-.02,.16-.04,.24-.13,.77-.3,1.55-.53,2.33-1.11,3.96-3.37,8.06-6.59,12.1-1.98,2.47-4.31,4.91-6.97,7.27-.97-4.61-2.07-9.57-3.24-14.76-2.02-8.95-4.23-18.6-6.19-28.36,.55,.04,1.09,.1,1.63,.15,10.35,1.16,18.12,5.3,20.99,12.22Z"/></g><path class="bj" d="M198.8,98.15c-3.51,1.45-10.02-1.53-20.42-9.33-.87-.66-1.76-1.34-2.69-2.06l.87-1.12c.92,.72,1.81,1.4,2.67,2.04,9.99,7.5,16.49,10.53,19.26,9.04,1.39-.74,1.99-2.8,1.8-6.12-.21-3.56-1.32-8.57-3.4-15.32-2.84-9.21-7.19-20.73-11.47-31.81l-.13-.35,1.33-.49,.13,.34c4.29,11.09,8.65,22.64,11.5,31.89,2.12,6.87,3.25,11.99,3.46,15.66,.23,3.97-.6,6.41-2.54,7.46-.12,.06-.24,.12-.36,.17Z"/><path class="bl" d="M267.23,239.54l-1.33,.5-.36-1.04c-.32-.92-.64-1.83-.96-2.73l-.07-.19c-3.27-9.28-6.5-17.98-9.63-26.39-8.25-22.18-14.77-39.7-14.19-48.07,.08-1.21,.32-2.25,.7-3.07,.58-1.26,1.5-2.1,2.75-2.49,2.9-.9,7.44,.6,14.29,4.72l.06,.04c1.94,1.17,4.02,2.52,6.37,4.14l.17,.12c4.8,3.33,10.54,7.69,17.09,12.96l-.89,1.1c-6.59-5.32-12.37-9.7-17.17-13.02l-.17-.12c-2.25-1.55-4.25-2.85-6.12-3.98-.01,0-.04-.02-.08-.05-6.28-3.77-10.69-5.31-13.11-4.56-.86,.27-1.48,.83-1.88,1.72-.31,.67-.5,1.53-.57,2.58-.55,8.06,5.92,25.45,14.11,47.47,3.13,8.42,6.37,17.12,9.64,26.43l.06,.18c.32,.89,.63,1.81,.95,2.73l.35,1Z"/><path class="br" d="M254.19,100.14c-.24,.1-.49,.17-.75,.22-2.61,.5-7.87-.76-23.31-17.4-.08-.09-.17-.19-.26-.28l1.05-.95,.25,.27c11.07,11.94,18.47,17.65,22,16.97,.93-.18,1.61-.85,2.08-2.04,.27-.69,.46-1.56,.58-2.6,.67-5.93-1.29-16.49-3.29-26.05-.99-4.75-2.15-9.89-3.24-14.75l-.59-2.6c-1.88-8.33-3.83-16.95-5.61-25.78-.02-.07-.04-.18-.06-.28l1.4-.26c.01,.08,.03,.16,.05,.24,1.78,8.84,3.72,17.45,5.6,25.77l.59,2.6c1.1,4.86,2.25,10.01,3.24,14.77,2.87,13.7,3.86,21.62,3.31,26.5-.13,1.17-.35,2.14-.67,2.95-.53,1.36-1.32,2.26-2.38,2.7Z"/><path class="bp" d="M293.23,232.06l-1.4,.22h0s0,.05,.03,.11l-.04-.14c-1.6-8.73-3.48-17.64-5.29-26.26-5.33-25.31-9.54-45.29-4.86-49.63,.97-.9,2.26-1.13,3.82-.68,1.68,.49,3.69,1.75,6.14,3.87,3.73,3.22,8.34,8.28,14.11,15.46l-1.11,.89c-5.63-7.01-10.32-12.15-13.93-15.27-2.26-1.95-4.15-3.16-5.61-3.58-1.06-.31-1.87-.19-2.46,.36-4.08,3.79,.47,25.41,5.29,48.3,1.81,8.6,3.68,17.5,5.28,26.22h0l.02,.14Z"/></g></g></g></g></g></svg>